<svg width="215" height="40" viewBox="0 0 215 40" fill="none" xmlns="http://www.w3.org/2000/svg">
<path d="M45.3242 29.2458H51.1228C55.4405 29.2458 58.9446 25.6495 58.9446 21.2183C58.9446 16.7872 55.4405 13.1909 51.1228 13.1909H45.3242V29.2458ZM49.4124 17.4508H51.1437C53.1878 17.4508 54.8564 19.1633 54.8564 21.2397C54.8564 23.3376 53.1878 25.0501 51.1437 25.0501H49.4124V17.4508Z" fill="#222B2F"/>
<path d="M75.5908 29.2458L72.2744 23.4232C73.4007 22.3529 74.1307 20.8116 74.1307 19.0991C74.1307 15.8453 71.5443 13.1909 68.3739 13.1909H61.7827V29.2458H65.8917V24.9859H68.4364L70.856 29.2458H75.5908ZM65.8917 16.7444H68.4364C69.6879 16.7444 70.6891 17.7719 70.6891 19.0563C70.6891 20.3407 69.6879 21.3468 68.4364 21.3468H65.8917V16.7444Z" fill="#222B2F"/>
<path d="M77.6097 29.2458H87.3296V25.7993H81.7187V22.8452H86.683V19.2918H81.7187V16.6802H87.3296V13.1909H77.6097V29.2458Z" fill="#222B2F"/>
<path d="M93.3456 29.2458L94.2842 27.1479H100.688L101.647 29.2458H105.756L98.3933 13.1909H96.5369L89.2365 29.2458H93.3456ZM97.4964 20.0624L99.0816 23.5945H95.8903L97.4964 20.0624Z" fill="#222B2F"/>
<path d="M109.694 13.1909H107.838V29.2458H111.968V21.0257L116.077 24.836L120.165 21.0043V29.2458H124.295V13.1909H122.439L116.077 19.1419L109.694 13.1909Z" fill="#222B2F"/>
<path d="M127.453 29.2458H131.563V22.8452H136.589V19.2704H131.563V16.6588H137.257V13.1909H127.453V29.2458Z" fill="#222B2F"/>
<path d="M144.314 13.1909H140.184V22.9095C140.184 26.4415 142.916 29.2458 146.358 29.2458C149.758 29.2458 152.532 26.4415 152.532 22.9095V13.1909H148.402V22.8452C148.402 24.0012 147.484 24.9431 146.358 24.9431C145.232 24.9431 144.314 24.0012 144.314 22.8452V13.1909Z" fill="#222B2F"/>
<path d="M155.665 29.2458H165.406V25.0073H159.774V13.1909H155.665V29.2458Z" fill="#222B2F"/>
<path d="M172.464 25.7779V22.9951H175.218C175.927 22.9951 176.573 23.6159 176.573 24.3865C176.573 25.1571 175.968 25.7779 175.218 25.7779H172.464ZM172.464 19.463V16.6802H174.446C175.197 16.6802 175.802 17.301 175.802 18.0716C175.802 18.8422 175.197 19.463 174.446 19.463H172.464ZM176.073 29.2458C178.555 29.2458 180.662 27.0837 180.662 24.5363C180.662 23.0807 179.952 21.7321 178.889 20.8544C179.493 20.0624 179.89 19.0563 179.89 17.9646C179.89 15.3958 177.762 13.1909 175.259 13.1909H168.355V29.2458H176.073Z" fill="#222B2F"/>
<path d="M187.232 13.1909H183.102V22.9095C183.102 26.4415 185.835 29.2458 189.276 29.2458C192.676 29.2458 195.45 26.4415 195.45 22.9095V13.1909H191.32V22.8452C191.32 24.0012 190.402 24.9431 189.276 24.9431C188.15 24.9431 187.232 24.0012 187.232 22.8452V13.1909Z" fill="#222B2F"/>
<path d="M198.583 29.2458H204.382C208.7 29.2458 212.204 25.6495 212.204 21.2183C212.204 16.7872 208.7 13.1909 204.382 13.1909H198.583V29.2458ZM202.672 17.4508H204.403C206.447 17.4508 208.116 19.1633 208.116 21.2397C208.116 23.3376 206.447 25.0501 204.403 25.0501H202.672V17.4508Z" fill="#222B2F"/>
<path d="M29.2827 18.7833C27.5458 22.6462 24.7687 25.9189 21.2791 28.2153C17.7896 30.5117 13.733 31.7362 9.58758 31.7444C9.32992 31.7444 9.07347 31.7381 8.81827 31.728C8.13853 31.7041 7.46862 31.6486 6.80851 31.5618C6.01331 31.4569 5.22436 31.3068 4.44537 31.1122L1.7829 30.4473L3.42705 32.6975C3.87079 33.3045 4.35581 33.8784 4.87852 34.4151C7.03155 36.6242 9.77446 38.1285 12.7605 38.7378C15.7465 39.3472 18.8415 39.0342 21.6543 37.8385C24.467 36.6427 26.8711 34.618 28.5626 32.0201C30.2541 29.4223 31.1571 26.3679 31.1574 23.2434V14.5927L29.2827 18.7833Z" fill="#FDD65F"/>
<path d="M30.8812 0V6.33883H16.4694C14.3065 6.33883 12.1648 6.77605 10.1666 7.62554C8.16832 8.47504 6.35269 9.72021 4.82335 11.2899C3.294 12.8595 2.08091 14.7229 1.25332 16.7738C0.425722 18.8246 -0.000161088 21.0226 4.57068e-08 23.2424V23.2424C0.0374896 27.7 1.78924 31.9621 4.87389 35.1006C7.95855 38.2391 12.1264 40 16.4701 40C20.8137 40 24.9815 38.2391 28.0661 35.1006C31.1508 31.9621 32.9025 27.7 32.94 23.2424V0H30.8812ZM3.36679 29.4163C2.35967 27.1622 1.92065 24.6845 2.09011 22.2109C2.25956 19.7373 3.03206 17.347 4.33658 15.2598C5.6411 13.1725 7.43582 11.4552 9.55585 10.2656C11.6759 9.07601 14.0532 8.45228 16.4694 8.45174H20.4031C16.4628 10.3075 13.1242 13.2849 10.784 17.0304C8.44379 20.7758 7.20026 25.1319 7.20102 29.5812C7.20102 29.857 7.20716 30.1315 7.21697 30.4047C5.90536 30.2042 4.61588 29.8732 3.36679 29.4163V29.4163ZM30.8812 23.2462C30.8815 26.1715 30.0364 29.0312 28.4529 31.4636C26.8694 33.8959 24.6186 35.7917 21.9851 36.9112C19.3517 38.0306 16.4539 38.3233 13.6583 37.7524C10.8627 37.1815 8.29482 35.7726 6.27953 33.7038C5.78968 33.2008 5.33541 32.6626 4.9201 32.0933C5.73426 32.2971 6.55881 32.4544 7.38996 32.5643C8.08115 32.655 8.7813 32.7124 9.49048 32.7368C9.75673 32.7468 10.0242 32.7531 10.2929 32.7531C14.6283 32.7539 18.8728 31.4777 22.5223 29.076C26.1718 26.6742 29.073 23.2479 30.8812 19.2041V23.2462ZM24.8508 24.4525C22.9435 26.4207 20.6748 27.9811 18.1759 29.0435C15.6771 30.1058 12.9977 30.6489 10.2929 30.6414C9.95671 30.6414 9.62179 30.6331 9.28806 30.6163C9.27251 30.2738 9.26431 29.93 9.26349 29.585C9.26349 23.9811 11.4326 18.6068 15.2936 14.6442C19.1547 10.6817 24.3915 8.45558 29.8518 8.45558C30.188 8.45558 30.5229 8.46393 30.8567 8.48072C30.873 8.82322 30.8812 9.16702 30.8812 9.51204C30.888 12.2871 30.3585 15.0359 29.3234 17.5996C28.2883 20.1632 26.7681 22.4907 24.8508 24.4474V24.4525Z" fill="#222B2F"/>
</svg>
